<mxfile host="app.diagrams.net" agent="Mozilla/5.0 (Windows NT 10.0; Win64; x64; rv:142.0) Gecko/20100101 Firefox/142.0" version="28.2.5">
  <diagram name="Страница — 1" id="DYFDuJzJZggshAcMHq7-">
    <mxGraphModel dx="1025" dy="507" grid="1" gridSize="10" guides="1" tooltips="1" connect="1" arrows="1" fold="1" page="1" pageScale="1" pageWidth="827" pageHeight="1169" math="0" shadow="0">
      <root>
        <mxCell id="0" />
        <mxCell id="1" parent="0" />
        <mxCell id="CEzDQQpDGu7afMJglTkz-1" value="Рейс" style="swimlane;fontStyle=1;align=center;verticalAlign=top;childLayout=stackLayout;horizontal=1;startSize=26;horizontalStack=0;resizeParent=1;resizeParentMax=0;resizeLast=0;collapsible=1;marginBottom=0;whiteSpace=wrap;html=1;" vertex="1" parent="1">
          <mxGeometry x="200" y="80" width="160" height="170" as="geometry" />
        </mxCell>
        <mxCell id="CEzDQQpDGu7afMJglTkz-2" value="&lt;div&gt;+ String Статус_рейса&lt;/div&gt;&lt;div&gt;+ Int Номер_рейса&lt;/div&gt;&lt;div&gt;+ String Время_вылета&lt;/div&gt;&lt;div&gt;+ String Время_прилета&lt;/div&gt;&lt;div&gt;&lt;br&gt;&lt;/div&gt;" style="text;strokeColor=none;fillColor=none;align=left;verticalAlign=top;spacingLeft=4;spacingRight=4;overflow=hidden;rotatable=0;points=[[0,0.5],[1,0.5]];portConstraint=eastwest;whiteSpace=wrap;html=1;" vertex="1" parent="CEzDQQpDGu7afMJglTkz-1">
          <mxGeometry y="26" width="160" height="64" as="geometry" />
        </mxCell>
        <mxCell id="CEzDQQpDGu7afMJglTkz-3" value="" style="line;strokeWidth=1;fillColor=none;align=left;verticalAlign=middle;spacingTop=-1;spacingLeft=3;spacingRight=3;rotatable=0;labelPosition=right;points=[];portConstraint=eastwest;strokeColor=inherit;" vertex="1" parent="CEzDQQpDGu7afMJglTkz-1">
          <mxGeometry y="90" width="160" height="8" as="geometry" />
        </mxCell>
        <mxCell id="CEzDQQpDGu7afMJglTkz-4" value="&lt;div&gt;+ Длительность_рейса (String, String): Int&lt;/div&gt;&lt;div&gt;+ Задержка_рейса(Int): void&lt;/div&gt;" style="text;strokeColor=none;fillColor=none;align=left;verticalAlign=top;spacingLeft=4;spacingRight=4;overflow=hidden;rotatable=0;points=[[0,0.5],[1,0.5]];portConstraint=eastwest;whiteSpace=wrap;html=1;" vertex="1" parent="CEzDQQpDGu7afMJglTkz-1">
          <mxGeometry y="98" width="160" height="72" as="geometry" />
        </mxCell>
        <mxCell id="CEzDQQpDGu7afMJglTkz-5" value="Самолет" style="swimlane;fontStyle=1;align=center;verticalAlign=top;childLayout=stackLayout;horizontal=1;startSize=26;horizontalStack=0;resizeParent=1;resizeParentMax=0;resizeLast=0;collapsible=1;marginBottom=0;whiteSpace=wrap;html=1;" vertex="1" parent="1">
          <mxGeometry x="400" y="80" width="180" height="150" as="geometry">
            <mxRectangle x="440" y="80" width="90" height="30" as="alternateBounds" />
          </mxGeometry>
        </mxCell>
        <mxCell id="CEzDQQpDGu7afMJglTkz-6" value="&lt;div&gt;+ Int номер&lt;/div&gt;&lt;div&gt;+ String тип судна&lt;/div&gt;&lt;div&gt;+ String Координаты&lt;/div&gt;&lt;div&gt;+ Int Номер_лицензии_пилота&lt;/div&gt;" style="text;strokeColor=none;fillColor=none;align=left;verticalAlign=top;spacingLeft=4;spacingRight=4;overflow=hidden;rotatable=0;points=[[0,0.5],[1,0.5]];portConstraint=eastwest;whiteSpace=wrap;html=1;" vertex="1" parent="CEzDQQpDGu7afMJglTkz-5">
          <mxGeometry y="26" width="180" height="74" as="geometry" />
        </mxCell>
        <mxCell id="CEzDQQpDGu7afMJglTkz-7" value="" style="line;strokeWidth=1;fillColor=none;align=left;verticalAlign=middle;spacingTop=-1;spacingLeft=3;spacingRight=3;rotatable=0;labelPosition=right;points=[];portConstraint=eastwest;strokeColor=inherit;" vertex="1" parent="CEzDQQpDGu7afMJglTkz-5">
          <mxGeometry y="100" width="180" height="8" as="geometry" />
        </mxCell>
        <mxCell id="CEzDQQpDGu7afMJglTkz-8" value="&lt;div&gt;+ Дозаправка(int): void&lt;/div&gt;&lt;div&gt;+ Вылет():void&lt;/div&gt;" style="text;strokeColor=none;fillColor=none;align=left;verticalAlign=top;spacingLeft=4;spacingRight=4;overflow=hidden;rotatable=0;points=[[0,0.5],[1,0.5]];portConstraint=eastwest;whiteSpace=wrap;html=1;" vertex="1" parent="CEzDQQpDGu7afMJglTkz-5">
          <mxGeometry y="108" width="180" height="42" as="geometry" />
        </mxCell>
        <mxCell id="CEzDQQpDGu7afMJglTkz-10" value="Пилот" style="swimlane;fontStyle=1;align=center;verticalAlign=top;childLayout=stackLayout;horizontal=1;startSize=26;horizontalStack=0;resizeParent=1;resizeParentMax=0;resizeLast=0;collapsible=1;marginBottom=0;whiteSpace=wrap;html=1;" vertex="1" parent="1">
          <mxGeometry x="400" y="330" width="190" height="150" as="geometry" />
        </mxCell>
        <mxCell id="CEzDQQpDGu7afMJglTkz-11" value="&lt;div&gt;+ String Имя&lt;/div&gt;&lt;div&gt;&lt;div&gt;+ Int Номер_лицензии_пилота&lt;/div&gt;&lt;/div&gt;&lt;div&gt;+ Int Время_полета&lt;/div&gt;" style="text;strokeColor=none;fillColor=none;align=left;verticalAlign=top;spacingLeft=4;spacingRight=4;overflow=hidden;rotatable=0;points=[[0,0.5],[1,0.5]];portConstraint=eastwest;whiteSpace=wrap;html=1;" vertex="1" parent="CEzDQQpDGu7afMJglTkz-10">
          <mxGeometry y="26" width="190" height="64" as="geometry" />
        </mxCell>
        <mxCell id="CEzDQQpDGu7afMJglTkz-12" value="" style="line;strokeWidth=1;fillColor=none;align=left;verticalAlign=middle;spacingTop=-1;spacingLeft=3;spacingRight=3;rotatable=0;labelPosition=right;points=[];portConstraint=eastwest;strokeColor=inherit;" vertex="1" parent="CEzDQQpDGu7afMJglTkz-10">
          <mxGeometry y="90" width="190" height="8" as="geometry" />
        </mxCell>
        <mxCell id="CEzDQQpDGu7afMJglTkz-13" value="+ Привязка_пилота_к_самолету (Int): boolean" style="text;strokeColor=none;fillColor=none;align=left;verticalAlign=top;spacingLeft=4;spacingRight=4;overflow=hidden;rotatable=0;points=[[0,0.5],[1,0.5]];portConstraint=eastwest;whiteSpace=wrap;html=1;" vertex="1" parent="CEzDQQpDGu7afMJglTkz-10">
          <mxGeometry y="98" width="190" height="52" as="geometry" />
        </mxCell>
        <mxCell id="CEzDQQpDGu7afMJglTkz-14" value="" style="endArrow=open;endFill=1;endSize=12;html=1;rounded=0;entryX=0.498;entryY=1.008;entryDx=0;entryDy=0;entryPerimeter=0;" edge="1" parent="1" target="CEzDQQpDGu7afMJglTkz-8">
          <mxGeometry width="160" relative="1" as="geometry">
            <mxPoint x="490" y="330" as="sourcePoint" />
            <mxPoint x="480" y="250" as="targetPoint" />
            <Array as="points">
              <mxPoint x="490" y="310" />
              <mxPoint x="490" y="300" />
            </Array>
          </mxGeometry>
        </mxCell>
        <mxCell id="CEzDQQpDGu7afMJglTkz-15" value="" style="endArrow=open;endFill=1;endSize=12;html=1;rounded=0;entryX=0;entryY=0.5;entryDx=0;entryDy=0;exitX=0.5;exitY=1;exitDx=0;exitDy=0;" edge="1" parent="1" source="CEzDQQpDGu7afMJglTkz-1" target="CEzDQQpDGu7afMJglTkz-11">
          <mxGeometry width="160" relative="1" as="geometry">
            <mxPoint x="330" y="300" as="sourcePoint" />
            <mxPoint x="490" y="300" as="targetPoint" />
            <Array as="points">
              <mxPoint x="280" y="388" />
            </Array>
          </mxGeometry>
        </mxCell>
        <mxCell id="CEzDQQpDGu7afMJglTkz-16" value="Аэропорт" style="swimlane;fontStyle=1;align=center;verticalAlign=top;childLayout=stackLayout;horizontal=1;startSize=26;horizontalStack=0;resizeParent=1;resizeParentMax=0;resizeLast=0;collapsible=1;marginBottom=0;whiteSpace=wrap;html=1;" vertex="1" parent="1">
          <mxGeometry x="60" y="320" width="210" height="150" as="geometry" />
        </mxCell>
        <mxCell id="CEzDQQpDGu7afMJglTkz-17" value="&lt;div&gt;+ String Названике&lt;/div&gt;&lt;div&gt;+ String Адрес&lt;/div&gt;&lt;div&gt;+ String Часовой_пояс&lt;/div&gt;&lt;div&gt;+ Int количество_посадочных_мест&lt;/div&gt;" style="text;strokeColor=none;fillColor=none;align=left;verticalAlign=top;spacingLeft=4;spacingRight=4;overflow=hidden;rotatable=0;points=[[0,0.5],[1,0.5]];portConstraint=eastwest;whiteSpace=wrap;html=1;" vertex="1" parent="CEzDQQpDGu7afMJglTkz-16">
          <mxGeometry y="26" width="210" height="74" as="geometry" />
        </mxCell>
        <mxCell id="CEzDQQpDGu7afMJglTkz-18" value="" style="line;strokeWidth=1;fillColor=none;align=left;verticalAlign=middle;spacingTop=-1;spacingLeft=3;spacingRight=3;rotatable=0;labelPosition=right;points=[];portConstraint=eastwest;strokeColor=inherit;" vertex="1" parent="CEzDQQpDGu7afMJglTkz-16">
          <mxGeometry y="100" width="210" height="8" as="geometry" />
        </mxCell>
        <mxCell id="CEzDQQpDGu7afMJglTkz-19" value="+ Свободные_посадочные_места(): int" style="text;strokeColor=none;fillColor=none;align=left;verticalAlign=top;spacingLeft=4;spacingRight=4;overflow=hidden;rotatable=0;points=[[0,0.5],[1,0.5]];portConstraint=eastwest;whiteSpace=wrap;html=1;" vertex="1" parent="CEzDQQpDGu7afMJglTkz-16">
          <mxGeometry y="108" width="210" height="42" as="geometry" />
        </mxCell>
        <mxCell id="CEzDQQpDGu7afMJglTkz-20" value="" style="endArrow=open;endFill=1;endSize=12;html=1;rounded=0;exitX=0.494;exitY=1.023;exitDx=0;exitDy=0;exitPerimeter=0;entryX=0.5;entryY=0;entryDx=0;entryDy=0;" edge="1" parent="1" source="CEzDQQpDGu7afMJglTkz-4" target="CEzDQQpDGu7afMJglTkz-16">
          <mxGeometry width="160" relative="1" as="geometry">
            <mxPoint x="330" y="300" as="sourcePoint" />
            <mxPoint x="490" y="300" as="targetPoint" />
            <Array as="points">
              <mxPoint x="280" y="280" />
              <mxPoint x="165" y="280" />
            </Array>
          </mxGeometry>
        </mxCell>
        <mxCell id="CEzDQQpDGu7afMJglTkz-21" value="Мотор" style="swimlane;fontStyle=1;align=center;verticalAlign=top;childLayout=stackLayout;horizontal=1;startSize=26;horizontalStack=0;resizeParent=1;resizeParentMax=0;resizeLast=0;collapsible=1;marginBottom=0;whiteSpace=wrap;html=1;" vertex="1" parent="1">
          <mxGeometry x="660" y="40" width="160" height="120" as="geometry" />
        </mxCell>
        <mxCell id="CEzDQQpDGu7afMJglTkz-22" value="&lt;div&gt;+ Int Серийный номер&lt;/div&gt;&lt;div&gt;+ boolean Состояние&lt;/div&gt;&lt;div&gt;&lt;br&gt;&lt;/div&gt;" style="text;strokeColor=none;fillColor=none;align=left;verticalAlign=top;spacingLeft=4;spacingRight=4;overflow=hidden;rotatable=0;points=[[0,0.5],[1,0.5]];portConstraint=eastwest;whiteSpace=wrap;html=1;" vertex="1" parent="CEzDQQpDGu7afMJglTkz-21">
          <mxGeometry y="26" width="160" height="44" as="geometry" />
        </mxCell>
        <mxCell id="CEzDQQpDGu7afMJglTkz-23" value="" style="line;strokeWidth=1;fillColor=none;align=left;verticalAlign=middle;spacingTop=-1;spacingLeft=3;spacingRight=3;rotatable=0;labelPosition=right;points=[];portConstraint=eastwest;strokeColor=inherit;" vertex="1" parent="CEzDQQpDGu7afMJglTkz-21">
          <mxGeometry y="70" width="160" height="8" as="geometry" />
        </mxCell>
        <mxCell id="CEzDQQpDGu7afMJglTkz-24" value="&lt;div&gt;+ включить(): void&lt;/div&gt;&lt;div&gt;+ выключить(): void&lt;/div&gt;" style="text;strokeColor=none;fillColor=none;align=left;verticalAlign=top;spacingLeft=4;spacingRight=4;overflow=hidden;rotatable=0;points=[[0,0.5],[1,0.5]];portConstraint=eastwest;whiteSpace=wrap;html=1;" vertex="1" parent="CEzDQQpDGu7afMJglTkz-21">
          <mxGeometry y="78" width="160" height="42" as="geometry" />
        </mxCell>
        <mxCell id="CEzDQQpDGu7afMJglTkz-25" value="" style="endArrow=diamondThin;endFill=1;endSize=24;html=1;rounded=0;exitX=0;exitY=0.5;exitDx=0;exitDy=0;" edge="1" parent="1" source="CEzDQQpDGu7afMJglTkz-24">
          <mxGeometry width="160" relative="1" as="geometry">
            <mxPoint x="640" y="180" as="sourcePoint" />
            <mxPoint x="579" y="139" as="targetPoint" />
          </mxGeometry>
        </mxCell>
        <mxCell id="CEzDQQpDGu7afMJglTkz-9" value="" style="endArrow=open;endFill=1;endSize=12;html=1;rounded=0;" edge="1" parent="1">
          <mxGeometry width="160" relative="1" as="geometry">
            <mxPoint x="360" y="150" as="sourcePoint" />
            <mxPoint x="400" y="150" as="targetPoint" />
            <Array as="points">
              <mxPoint x="400" y="150" />
            </Array>
          </mxGeometry>
        </mxCell>
      </root>
    </mxGraphModel>
  </diagram>
</mxfile>
